<svg xmlns="http://www.w3.org/2000/svg" viewBox="0 0 512 512">
  <defs>
    <linearGradient id="panel" x1="0" y1="0" x2="1" y2="1">
      <stop offset="0" stop-color="#172238"/>
      <stop offset="1" stop-color="#0B1220"/>
    </linearGradient>
    <linearGradient id="wave" x1="0" y1="0" x2="1" y2="0">
      <stop offset="0" stop-color="#60A5FA"/>
      <stop offset="1" stop-color="#22D3EE"/>
    </linearGradient>
  </defs>
  <rect x="18" y="18" width="476" height="476" rx="108" fill="url(#panel)"/>
  <rect x="27" y="27" width="458" height="458" rx="99" fill="none" stroke="#334966" stroke-width="10"/>
  <g fill="#8FB4DF" opacity="0.22">
    <circle cx="105" cy="112" r="7"/><circle cx="166" cy="112" r="7"/><circle cx="346" cy="112" r="7"/><circle cx="407" cy="112" r="7"/>
    <circle cx="105" cy="400" r="7"/><circle cx="166" cy="400" r="7"/><circle cx="346" cy="400" r="7"/><circle cx="407" cy="400" r="7"/>
  </g>
  <rect x="225" y="76" width="62" height="360" rx="24" fill="#23334A" stroke="#86A9D4" stroke-width="9"/>
  <path d="M67 256 C111 164 151 164 195 256 S279 348 323 256 S407 164 451 256"
        fill="none" stroke="url(#wave)" stroke-width="28" stroke-linecap="round"/>
  <path d="M67 256 C111 164 151 164 195 256 S279 348 323 256 S407 164 451 256"
        fill="none" stroke="#E6F7FF" stroke-width="7" stroke-linecap="round" opacity="0.88"/>
  <circle cx="256" cy="256" r="23" fill="#34D399" stroke="#D1FAE5" stroke-width="8"/>
</svg>
